<?xml version="1.0" encoding="UTF-8" standalone="no"?>
<!DOCTYPE svg PUBLIC "-//W3C//DTD SVG 1.1//EN"
 "http://www.w3.org/Graphics/SVG/1.1/DTD/svg11.dtd">
<!-- Generated by graphviz version 2.38.0 (20140413.2041)
 -->
<!-- Title: hello world Pages: 1 -->
<svg width="350pt" height="294pt"
 viewBox="0.00 0.00 350.00 294.00" xmlns="http://www.w3.org/2000/svg" xmlns:xlink="http://www.w3.org/1999/xlink">
<g id="graph0" class="graph" transform="scale(1 1) rotate(0) translate(4 290)">
<title>hello world</title>
<polygon fill="white" stroke="none" points="-4,4 -4,-290 346,-290 346,4 -4,4"/>
<g id="clust3" class="cluster"><title>cluster01</title>
<polygon fill="lightgrey" stroke="black" points="36,-203 36,-278 258,-278 258,-203 36,-203"/>
<text text-anchor="middle" x="147" y="-262.8" font-family="Times New Roman,serif" font-size="14.00">hogehoge</text>
</g>
<g id="clust6" class="cluster"><title>cluster_piyo</title>
<polygon fill="none" stroke="black" points="8,-8 8,-60 278,-60 278,-8 8,-8"/>
</g>
<g id="clust5" class="cluster"><title>cluster02</title>
<polygon fill="none" stroke="black" points="105,-97 105,-172 181,-172 181,-97 105,-97"/>
<text text-anchor="middle" x="143" y="-156.8" font-family="Times New Roman,serif" font-size="14.00">hugahuga</text>
</g>
<!-- Hoge -->
<g id="node1" class="node"><title>Hoge</title>
<ellipse fill="none" stroke="black" cx="219" cy="-229" rx="30.5947" ry="18"/>
<text text-anchor="middle" x="219" y="-225.3" font-family="Times New Roman,serif" font-size="14.00">Hoge</text>
</g>
<!-- Huga -->
<g id="node4" class="node"><title>Huga</title>
<ellipse fill="none" stroke="black" cx="143" cy="-123" rx="29.795" ry="18"/>
<text text-anchor="middle" x="143" y="-119.3" font-family="Times New Roman,serif" font-size="14.00">Huga</text>
</g>
<!-- Hoge&#45;&gt;Huga -->
<g id="edge1" class="edge"><title>Hoge&#45;&gt;Huga</title>
<path fill="none" stroke="black" d="M207.457,-212.205C200.98,-203.342 192.468,-191.693 183.761,-179.778"/>
<polygon fill="black" stroke="black" points="186.451,-177.527 177.725,-171.518 180.799,-181.657 186.451,-177.527"/>
</g>
<!-- Foo -->
<g id="node2" class="node"><title>Foo</title>
<ellipse fill="none" stroke="black" cx="143" cy="-229" rx="27" ry="18"/>
<text text-anchor="middle" x="143" y="-225.3" font-family="Times New Roman,serif" font-size="14.00">Foo</text>
</g>
<!-- Foo&#45;&gt;Huga -->
<g id="edge2" class="edge"><title>Foo&#45;&gt;Huga</title>
<path fill="none" stroke="black" d="M143,-210.827C143,-202.682 143,-192.429 143,-181.849"/>
<polygon fill="black" stroke="black" points="146.5,-181.662 143,-171.662 139.5,-181.662 146.5,-181.662"/>
</g>
<!-- Bar -->
<g id="node3" class="node"><title>Bar</title>
<ellipse fill="none" stroke="black" cx="71" cy="-229" rx="27" ry="18"/>
<text text-anchor="middle" x="71" y="-225.3" font-family="Times New Roman,serif" font-size="14.00">Bar</text>
</g>
<!-- Bar&#45;&gt;Huga -->
<g id="edge3" class="edge"><title>Bar&#45;&gt;Huga</title>
<path fill="none" stroke="black" d="M81.9353,-212.205C88.0436,-203.381 96.0633,-191.797 104.273,-179.939"/>
<polygon fill="black" stroke="black" points="107.152,-181.93 109.966,-171.715 101.396,-177.945 107.152,-181.93"/>
</g>
<!-- Piyo01 -->
<g id="node5" class="node"><title>Piyo01</title>
<ellipse fill="none" stroke="black" cx="234" cy="-34" rx="36.2938" ry="18"/>
<text text-anchor="middle" x="234" y="-30.3" font-family="Times New Roman,serif" font-size="14.00">Piyo01</text>
</g>
<!-- Huga&#45;&gt;Piyo01 -->
<g id="edge4" class="edge"><title>Huga&#45;&gt;Piyo01</title>
<path fill="none" stroke="black" d="M169.129,-97.0192C178.937,-87.6425 190.221,-76.8544 200.6,-66.9322"/>
<polygon fill="black" stroke="black" points="203.147,-69.3387 207.957,-59.8984 198.31,-64.279 203.147,-69.3387"/>
</g>
<!-- Piyo02 -->
<g id="node6" class="node"><title>Piyo02</title>
<ellipse fill="none" stroke="black" cx="143" cy="-34" rx="36.2938" ry="18"/>
<text text-anchor="middle" x="143" y="-30.3" font-family="Times New Roman,serif" font-size="14.00">Piyo02</text>
</g>
<!-- Huga&#45;&gt;Piyo02 -->
<g id="edge5" class="edge"><title>Huga&#45;&gt;Piyo02</title>
<path fill="none" stroke="black" d="M143,-97.2398C143,-86.2946 143,-73.3924 143,-62.1815"/>
<polygon fill="black" stroke="black" points="146.5,-69.9998 143,-60 139.5,-70.0002 146.5,-69.9998"/>
</g>
<!-- Piyo03 -->
<g id="node7" class="node"><title>Piyo03</title>
<ellipse fill="none" stroke="black" cx="52" cy="-34" rx="36.2938" ry="18"/>
<text text-anchor="middle" x="52" y="-30.3" font-family="Times New Roman,serif" font-size="14.00">Piyo03</text>
</g>
<!-- Huga&#45;&gt;Piyo03 -->
<g id="edge6" class="edge"><title>Huga&#45;&gt;Piyo03</title>
<path fill="none" stroke="black" d="M116.871,-97.0192C107.063,-87.6425 95.7788,-76.8544 85.4003,-66.9322"/>
<polygon fill="black" stroke="black" points="87.69,-64.279 78.0431,-59.8984 82.8526,-69.3387 87.69,-64.279"/>
</g>
<!-- dott3 -->
<g id="node8" class="node"><title>dott3</title>
<polygon fill="none" stroke="black" points="268,-194.5 268,-263.5 322,-263.5 322,-194.5 268,-194.5"/>
<text text-anchor="middle" x="295" y="-248.3" font-family="Times New Roman,serif" font-size="14.00">a</text>
<polyline fill="none" stroke="black" points="268,-240.5 322,-240.5 "/>
<text text-anchor="middle" x="281.5" y="-225.3" font-family="Times New Roman,serif" font-size="14.00">b</text>
<polyline fill="none" stroke="black" points="295,-217.5 295,-240.5 "/>
<text text-anchor="middle" x="308.5" y="-225.3" font-family="Times New Roman,serif" font-size="14.00">d</text>
<polyline fill="none" stroke="black" points="268,-217.5 322,-217.5 "/>
<text text-anchor="middle" x="295" y="-202.3" font-family="Times New Roman,serif" font-size="14.00">c</text>
</g>
<!-- dott4 -->
<g id="node9" class="node"><title>dott4</title>
<path fill="none" stroke="black" d="M292,-88.5C292,-88.5 330,-88.5 330,-88.5 336,-88.5 342,-94.5 342,-100.5 342,-100.5 342,-145.5 342,-145.5 342,-151.5 336,-157.5 330,-157.5 330,-157.5 292,-157.5 292,-157.5 286,-157.5 280,-151.5 280,-145.5 280,-145.5 280,-100.5 280,-100.5 280,-94.5 286,-88.5 292,-88.5"/>
<text text-anchor="middle" x="311" y="-142.3" font-family="Times New Roman,serif" font-size="14.00">a2</text>
<polyline fill="none" stroke="black" points="280,-134.5 342,-134.5 "/>
<text text-anchor="middle" x="295.5" y="-119.3" font-family="Times New Roman,serif" font-size="14.00">b2</text>
<polyline fill="none" stroke="black" points="311,-111.5 311,-134.5 "/>
<text text-anchor="middle" x="326.5" y="-119.3" font-family="Times New Roman,serif" font-size="14.00">d2</text>
<polyline fill="none" stroke="black" points="280,-111.5 342,-111.5 "/>
<text text-anchor="middle" x="311" y="-96.3" font-family="Times New Roman,serif" font-size="14.00">c2</text>
</g>
<!-- dott3&#45;&gt;dott4 -->
<g id="edge7" class="edge"><title>dott3:f1&#45;&gt;dott4:f2</title>
<path fill="none" stroke="black" d="M323,-252C348.782,-252 332.975,-217.329 322,-194 311.535,-171.753 290.591,-180.187 280,-158 275.548,-148.674 269.705,-136.3 270.839,-129.038"/>
<polygon fill="black" stroke="black" points="273.043,-131.762 279,-123 268.879,-126.135 273.043,-131.762"/>
</g>
</g>
</svg>
